<svg width="54" height="54" viewBox="0 0 54 54" fill="none" xmlns="http://www.w3.org/2000/svg">
<path d="M17.3943 22.2322V21.8255C17.3943 20.7948 18.2241 19.94 19.2937 19.8689L27.0841 19.3516L37.8575 35.1336V21.2822L35.0845 20.9144V20.7213C35.0845 19.6785 35.9333 18.818 37.0164 18.7628L44.1049 18.4016V19.4163C44.1049 19.8927 43.7488 20.3002 43.2607 20.3823L41.5549 20.6693V43.1012L39.4141 43.8336C37.6257 44.4455 35.6346 43.7905 34.6108 42.2536L24.1516 26.5531V41.5384L27.3709 42.1513L27.3261 42.4483C27.1856 43.3788 26.378 44.0825 25.4011 44.1257L17.3943 44.4803C17.2885 43.4797 18.0423 42.5845 19.0823 42.4758L20.1355 42.3658V22.3854L17.3943 22.2322Z" fill="#242424"/>
<path fill-rule="evenodd" clip-rule="evenodd" d="M36.3641 0.988861L4.26466 3.16899C2.34192 3.29958 0.851501 4.83731 0.851501 6.6905V37.7487C0.851501 39.4899 1.45403 41.1817 2.56417 42.5575L9.48528 51.1346C10.6043 52.5214 12.3653 53.285 14.1872 53.1734L49.8139 50.9918C51.6399 50.88 53.0614 49.4235 53.0614 47.6644V12.3542C53.0614 11.2659 52.5089 10.2461 51.5814 9.62221L40.3033 2.03684C39.154 1.2638 37.7633 0.893829 36.3641 0.988861ZM5.8564 7.17495C5.40995 6.84614 5.62242 6.16113 6.18327 6.12111L36.58 3.95223C37.5485 3.88312 38.5108 4.14843 39.2941 4.70045L45.393 8.99889C45.6245 9.16208 45.5159 9.51437 45.2292 9.52988L13.0392 11.2714C12.065 11.3241 11.1034 11.0394 10.3289 10.469L5.8564 7.17495ZM11.5294 16.7311C11.5294 15.6908 12.3742 14.8315 13.4545 14.773L47.4885 12.9291C48.5414 12.8721 49.4278 13.6776 49.4278 14.6915V45.2664C49.4278 46.3048 48.5859 47.1632 47.5077 47.2242L13.6892 49.1384C12.5175 49.2048 11.5294 48.3091 11.5294 47.1806V16.7311Z" fill="#242424"/>
</svg>
